<svg width="32" height="32" viewBox="0 0 32 32" fill="none" xmlns="http://www.w3.org/2000/svg">
    <path fill-rule="evenodd" clip-rule="evenodd" d="M15.9998 4C19.4412 4 22.4732 6.21467 23.5665 9.39333C26.8185 9.83467 29.3332 12.6293 29.3332 16C29.3332 17.628 28.7412 19.1947 27.6665 20.412C27.4025 20.7093 27.0358 20.8627 26.6665 20.8627C26.3532 20.8627 26.0385 20.7533 25.7838 20.5293C25.2332 20.04 25.1798 19.1987 25.6678 18.6453C26.3118 17.9173 26.6665 16.976 26.6665 16C26.6665 13.7947 24.8718 12 22.6665 12H22.5332C21.8985 12 21.3518 11.552 21.2265 10.9293C20.7278 8.46 18.5305 6.66667 15.9998 6.66667C13.4705 6.66667 11.2718 8.46 10.7745 10.9293C10.6492 11.552 10.1012 12 9.4665 12H9.33317C7.12784 12 5.33317 13.7947 5.33317 16C5.33317 16.976 5.68784 17.9173 6.33317 18.6453C6.81984 19.1987 6.76784 20.04 6.21584 20.5293C5.66384 21.0173 4.82117 20.9627 4.3345 20.412C3.2585 19.1947 2.6665 17.628 2.6665 16C2.6665 12.6293 5.18117 9.83467 8.43317 9.39333C9.52784 6.21467 12.5598 4 15.9998 4ZM15.0735 15.0402C15.5988 14.5389 16.4295 14.5429 16.9428 15.0575L20.9428 19.0575C21.4641 19.5789 21.4641 20.4215 20.9428 20.9429C20.6828 21.2029 20.3415 21.3335 20.0001 21.3335C19.6588 21.3335 19.3175 21.2029 19.0575 20.9429L17.3335 19.2189V26.6669C17.3335 27.4042 16.7361 28.0002 16.0001 28.0002C15.2641 28.0002 14.6668 27.4042 14.6668 26.6669V19.1415L12.9268 20.8215C12.3975 21.3349 11.5535 21.3175 11.0415 20.7882C10.5295 20.2575 10.5441 19.4149 11.0735 18.9029L15.0735 15.0402Z" fill="#00264B"/>
    <mask id="mask0_4380_7868" style="mask-type:alpha" maskUnits="userSpaceOnUse" x="2" y="4" width="28" height="24">
        <path fill-rule="evenodd" clip-rule="evenodd" d="M15.9998 4C19.4412 4 22.4732 6.21467 23.5665 9.39333C26.8185 9.83467 29.3332 12.6293 29.3332 16C29.3332 17.628 28.7412 19.1947 27.6665 20.412C27.4025 20.7093 27.0358 20.8627 26.6665 20.8627C26.3532 20.8627 26.0385 20.7533 25.7838 20.5293C25.2332 20.04 25.1798 19.1987 25.6678 18.6453C26.3118 17.9173 26.6665 16.976 26.6665 16C26.6665 13.7947 24.8718 12 22.6665 12H22.5332C21.8985 12 21.3518 11.552 21.2265 10.9293C20.7278 8.46 18.5305 6.66667 15.9998 6.66667C13.4705 6.66667 11.2718 8.46 10.7745 10.9293C10.6492 11.552 10.1012 12 9.4665 12H9.33317C7.12784 12 5.33317 13.7947 5.33317 16C5.33317 16.976 5.68784 17.9173 6.33317 18.6453C6.81984 19.1987 6.76784 20.04 6.21584 20.5293C5.66384 21.0173 4.82117 20.9627 4.3345 20.412C3.2585 19.1947 2.6665 17.628 2.6665 16C2.6665 12.6293 5.18117 9.83467 8.43317 9.39333C9.52784 6.21467 12.5598 4 15.9998 4ZM15.0735 15.0402C15.5988 14.5389 16.4295 14.5429 16.9428 15.0575L20.9428 19.0575C21.4641 19.5789 21.4641 20.4215 20.9428 20.9429C20.6828 21.2029 20.3415 21.3335 20.0001 21.3335C19.6588 21.3335 19.3175 21.2029 19.0575 20.9429L17.3335 19.2189V26.6669C17.3335 27.4042 16.7361 28.0002 16.0001 28.0002C15.2641 28.0002 14.6668 27.4042 14.6668 26.6669V19.1415L12.9268 20.8215C12.3975 21.3349 11.5535 21.3175 11.0415 20.7882C10.5295 20.2575 10.5441 19.4149 11.0735 18.9029L15.0735 15.0402Z" fill="white"/>
    </mask>
    <g mask="url(#mask0_4380_7868)">
        <rect width="32" height="32" fill="#00264B"/>
    </g>
</svg>
